<?xml version="1.0" encoding="UTF-8"?>
<svg width="2000px" height="700px" viewBox="0 0 2000 700" version="1.1" xmlns="http://www.w3.org/2000/svg" xmlns:xlink="http://www.w3.org/1999/xlink">
    <!-- Generator: Sketch 54.1 (76490) - https://sketchapp.com -->
    <title>Rectangle 14</title>
    <desc>Created with Sketch.</desc>
    <defs>
        <radialGradient cx="32.2836706%" cy="42.134988%" fx="32.2836706%" fy="42.134988%" r="46.513033%" gradientTransform="translate(0.322837,0.421350),scale(0.350000,1.000000),rotate(90.000000),scale(1.000000,2.111216),translate(-0.322837,-0.421350)" id="radialGradient-1">
            <stop stop-color="#3058E5" offset="0%"></stop>
            <stop stop-color="#0000C2" offset="100%"></stop>
        </radialGradient>
        <path d="M0,0 L2000,0 L2000,517.390813 C1947.97535,524.965785 1893.03387,524.965785 1835.17556,517.390813 C1723.44688,502.762983 1621.83106,446.40628 1495,446.40628 C1257.17576,446.40628 1142.80681,610.23381 969.777319,644.48801 C689.367588,700 617.183759,582.729007 405,582.729007 C284.463006,582.729007 149.463006,621.819338 0,700 L0,0 Z" id="path-2"></path>
    </defs>
    <g id="页面" stroke="none" stroke-width="1" fill="none" fill-rule="evenodd">
        <g id="Artboard-2">
            <g id="Rectangle-14">
                <mask id="mask-3" fill="white">
                    <use xlink:href="#path-2"></use>
                </mask>
                <use id="Mask" fill="url(#radialGradient-1)" fill-rule="nonzero" xlink:href="#path-2"></use>
                <path d="M5,706.965752 C160.581525,586.134122 359.422983,525.718306 601.524372,525.718306 C888.302248,525.718306 945.529279,661.181004 1307.0036,648.859153 C1447.73164,644.062049 1674.8833,525.718306 1841.61664,525.718306 C1915.08818,525.718306 1969.5493,536.141855 2005,556.988952 L2005,772 L5,772 L5,706.965752 Z" fill="#3058E5" fill-rule="nonzero" opacity="0.802957589" mask="url(#mask-3)"></path>
            </g>
        </g>
    </g>
</svg>